# xmcd
#
# Track frame offsets:
#	150
#	20732
#	38282
#	60115
#	77857
#	100377
#	120715
#	139287
#	161657
#	180455
#
# Disc length: 2706 seconds
#
# Revision: 1
# Processed by: cddbd v1.5PL3 Copyright (c) Steve Scherf et al.
# Submitted via: CDex 1.50Beta5
#
DISCID=790a900a
DTITLE=和久井映見 - ルナーレ
DYEAR=1991
DGENRE=Pop
TTITLE0=カサノバ・サーカス
TTITLE1=アキラが可哀想
TTITLE2=手紙をください
TTITLE3=挑発的なダンス
TTITLE4=Sixteen
TTITLE5=スピンして、ガールフレンド
TTITLE6=Count Down Moon
TTITLE7=花で言えばバラのようなあなた
TTITLE8=さわがしい情熱
TTITLE9=シャワーでも、コロンでも
EXTD=
EXTT0=
EXTT1=
EXTT2=
EXTT3=
EXTT4=
EXTT5=
EXTT6=
EXTT7=
EXTT8=
EXTT9=
PLAYORDER=
